<?xml version="1.0" encoding="utf-8"?><svg version="1.1" id="Layer_1" xmlns="http://www.w3.org/2000/svg" xmlns:xlink="http://www.w3.org/1999/xlink" x="0px" y="0px" viewBox="0 0 99.42 122.88" style="enable-background:new 0 0 99.42 122.88" xml:space="preserve"><style type="text/css">.st0{fill-rule:evenodd;clip-rule:evenodd;}</style><g><path class="st0" d="M84.98,0l0.98,39.14h-3.58c-1.65-9.81-5.76-17.71-12.33-23.71C63.49,9.46,56.43,6.48,48.8,6.48 c-5.88,0-10.55,1.57-13.98,4.73c-3.46,3.13-5.17,6.77-5.17,10.88c0,2.57,0.62,4.91,1.83,6.92c1.65,2.72,4.34,5.41,8.04,8.04 c2.72,1.92,8.99,5.29,18.8,10.14l2.06,1.03l-41.02,7.2c-1.82-2.09-3.36-4.28-4.63-6.58c-2.51-4.55-3.78-9.58-3.78-15.08 c0-9.34,3.46-17.32,10.32-23.91C28.14,3.28,36.8,0,47.23,0c3.81,0,7.51,0.44,11.09,1.36c2.72,0.71,6.03,1.98,9.9,3.87 c3.9,1.86,6.65,2.81,8.19,2.81c1.51,0,2.69-0.47,3.55-1.39c0.89-0.92,1.69-3.13,2.42-6.65H84.98L84.98,0z M0,63.78l96.83-17 l2.58,14.7l-96.83,17L0,63.78L0,63.78z M87.68,68.5c3.7,5.47,5.54,11.61,5.54,18.44c0,9.81-3.84,18.27-11.47,25.33 c-7.66,7.06-17.38,10.61-29.14,10.61c-3.7,0-7.21-0.38-10.49-1.12c-3.28-0.77-7.42-2.19-12.39-4.26c-2.78-1.15-5.05-1.71-6.83-1.71 c-1.51,0-3.1,0.56-4.76,1.71c-1.68,1.15-3.05,2.93-4.08,5.29h-3.19V81.99l3.82-0.67c2.68,11.08,7.35,19.62,14.06,25.67 c7.24,6.56,15.05,9.84,23.41,9.84c6.47,0,11.62-1.77,15.46-5.29c3.84-3.52,5.76-7.63,5.76-12.3c0-2.78-0.74-5.47-2.22-8.07 c-1.48-2.57-3.7-5.06-6.71-7.39c-2.87-2.22-7.81-5.08-14.85-8.59L87.68,68.5L87.68,68.5z"/></g></svg>